<svg xmlns="http://www.w3.org/2000/svg" xmlns:xlink="http://www.w3.org/1999/xlink" contentStyleType="text/css" data-diagram-type="CLASS" height="708px" preserveAspectRatio="none" style="width:1187px;height:708px;background:#FFFFFF;" version="1.1" viewBox="0 0 1187 708" width="1187px" zoomAndPan="magnify"><defs/><g><!--class AuthFacade--><g class="entity" data-entity="AuthFacade" data-source-line="1" data-uid="ent0002" id="entity_AuthFacade"><rect fill="#F1F1F1" height="80.5938" rx="2.5" ry="2.5" style="stroke:#181818;stroke-width:0.5;" width="562.1426" x="411.79" y="305.89"/><ellipse cx="647.0009" cy="321.89" fill="#ADD1B2" rx="11" ry="11" style="stroke:#181818;stroke-width:1;"/><path d="M649.9697,327.5306 Q649.3916,327.8275 648.7509,327.9681 Q648.1103,328.1244 647.4072,328.1244 Q644.9072,328.1244 643.5791,326.4838 Q642.2666,324.8275 642.2666,321.7025 Q642.2666,318.5775 643.5791,316.9213 Q644.9072,315.265 647.4072,315.265 Q648.1103,315.265 648.7509,315.4213 Q649.4072,315.5775 649.9697,315.8744 L649.9697,318.5931 Q649.3447,318.015 648.7509,317.7494 Q648.1572,317.4681 647.5322,317.4681 Q646.1884,317.4681 645.5009,318.5463 Q644.8134,319.6088 644.8134,321.7025 Q644.8134,323.7963 645.5009,324.8744 Q646.1884,325.9369 647.5322,325.9369 Q648.1572,325.9369 648.7509,325.6713 Q649.3447,325.39 649.9697,324.8119 L649.9697,327.5306 Z " fill="#000000"/><text fill="#000000" font-family="sans-serif" font-size="14" lengthAdjust="spacing" textLength="83.2207" x="667.5009" y="326.7367">AuthFacade</text><line style="stroke:#181818;stroke-width:0.5;" x1="412.79" x2="972.9326" y1="337.89" y2="337.89"/><line style="stroke:#181818;stroke-width:0.5;" x1="412.79" x2="972.9326" y1="345.89" y2="345.89"/><ellipse cx="422.79" cy="359.5384" fill="#84BE84" rx="3" ry="3" style="stroke:#038048;stroke-width:1;"/><text fill="#000000" font-family="sans-serif" font-size="14" lengthAdjust="spacing" textLength="343.7246" x="431.79" y="362.8851">login(username: String, password: String): String</text><ellipse cx="422.79" cy="375.8353" fill="#84BE84" rx="3" ry="3" style="stroke:#038048;stroke-width:1;"/><text fill="#000000" font-family="sans-serif" font-size="14" lengthAdjust="spacing" textLength="536.1426" x="431.79" y="379.182">checkAppAccess(token: String, username: String, application: String): String</text></g><!--class UserService--><g class="entity" data-entity="UserService" data-source-line="6" data-uid="ent0003" id="entity_UserService"><rect fill="#F1F1F1" height="64.2969" rx="2.5" ry="2.5" style="stroke:#181818;stroke-width:0.5;" width="369.7246" x="7" y="463.48"/><ellipse cx="145.7866" cy="479.48" fill="#ADD1B2" rx="11" ry="11" style="stroke:#181818;stroke-width:1;"/><path d="M148.7554,485.1206 Q148.1772,485.4175 147.5366,485.5581 Q146.896,485.7144 146.1929,485.7144 Q143.6929,485.7144 142.3647,484.0737 Q141.0522,482.4175 141.0522,479.2925 Q141.0522,476.1675 142.3647,474.5112 Q143.6929,472.855 146.1929,472.855 Q146.896,472.855 147.5366,473.0112 Q148.1929,473.1675 148.7554,473.4644 L148.7554,476.1831 Q148.1304,475.605 147.5366,475.3394 Q146.9429,475.0581 146.3179,475.0581 Q144.9741,475.0581 144.2866,476.1362 Q143.5991,477.1987 143.5991,479.2925 Q143.5991,481.3862 144.2866,482.4644 Q144.9741,483.5269 146.3179,483.5269 Q146.9429,483.5269 147.5366,483.2612 Q148.1304,482.98 148.7554,482.4019 L148.7554,485.1206 Z " fill="#000000"/><text fill="#000000" font-family="sans-serif" font-size="14" lengthAdjust="spacing" textLength="83.6514" x="166.2866" y="484.3267">UserService</text><line style="stroke:#181818;stroke-width:0.5;" x1="8" x2="375.7246" y1="495.48" y2="495.48"/><line style="stroke:#181818;stroke-width:0.5;" x1="8" x2="375.7246" y1="503.48" y2="503.48"/><ellipse cx="18" cy="517.1284" fill="#84BE84" rx="3" ry="3" style="stroke:#038048;stroke-width:1;"/><text fill="#000000" font-family="sans-serif" font-size="14" lengthAdjust="spacing" textLength="343.7246" x="27" y="520.4751">login(username: String, password: String): String</text></g><!--class TokenService--><g class="entity" data-entity="TokenService" data-source-line="10" data-uid="ent0004" id="entity_TokenService"><rect fill="#F1F1F1" height="64.2969" rx="2.5" ry="2.5" style="stroke:#181818;stroke-width:0.5;" width="562.1426" x="411.79" y="463.48"/><ellipse cx="641.3852" cy="479.48" fill="#ADD1B2" rx="11" ry="11" style="stroke:#181818;stroke-width:1;"/><path d="M644.354,485.1206 Q643.7758,485.4175 643.1352,485.5581 Q642.4946,485.7144 641.7915,485.7144 Q639.2915,485.7144 637.9633,484.0737 Q636.6508,482.4175 636.6508,479.2925 Q636.6508,476.1675 637.9633,474.5112 Q639.2915,472.855 641.7915,472.855 Q642.4946,472.855 643.1352,473.0112 Q643.7915,473.1675 644.354,473.4644 L644.354,476.1831 Q643.729,475.605 643.1352,475.3394 Q642.5415,475.0581 641.9165,475.0581 Q640.5727,475.0581 639.8852,476.1362 Q639.1977,477.1987 639.1977,479.2925 Q639.1977,481.3862 639.8852,482.4644 Q640.5727,483.5269 641.9165,483.5269 Q642.5415,483.5269 643.1352,483.2612 Q643.729,482.98 644.354,482.4019 L644.354,485.1206 Z " fill="#000000"/><text fill="#000000" font-family="sans-serif" font-size="14" lengthAdjust="spacing" textLength="94.4521" x="661.8852" y="484.3267">TokenService</text><line style="stroke:#181818;stroke-width:0.5;" x1="412.79" x2="972.9326" y1="495.48" y2="495.48"/><line style="stroke:#181818;stroke-width:0.5;" x1="412.79" x2="972.9326" y1="503.48" y2="503.48"/><ellipse cx="422.79" cy="517.1284" fill="#84BE84" rx="3" ry="3" style="stroke:#038048;stroke-width:1;"/><text fill="#000000" font-family="sans-serif" font-size="14" lengthAdjust="spacing" textLength="536.1426" x="431.79" y="520.4751">checkAppAccess(token: String, username: String, application: String): String</text></g><!--class LoggerService--><g class="entity" data-entity="LoggerService" data-source-line="14" data-uid="ent0005" id="entity_LoggerService"><rect fill="#F1F1F1" height="64.2969" rx="2.5" ry="2.5" style="stroke:#181818;stroke-width:0.5;" width="172.1318" x="1008.8" y="463.48"/><ellipse cx="1041.7473" cy="479.48" fill="#ADD1B2" rx="11" ry="11" style="stroke:#181818;stroke-width:1;"/><path d="M1044.716,485.1206 Q1044.1379,485.4175 1043.4973,485.5581 Q1042.8566,485.7144 1042.1535,485.7144 Q1039.6535,485.7144 1038.3254,484.0737 Q1037.0129,482.4175 1037.0129,479.2925 Q1037.0129,476.1675 1038.3254,474.5112 Q1039.6535,472.855 1042.1535,472.855 Q1042.8566,472.855 1043.4973,473.0112 Q1044.1535,473.1675 1044.716,473.4644 L1044.716,476.1831 Q1044.091,475.605 1043.4973,475.3394 Q1042.9035,475.0581 1042.2785,475.0581 Q1040.9348,475.0581 1040.2473,476.1362 Q1039.5598,477.1987 1039.5598,479.2925 Q1039.5598,481.3862 1040.2473,482.4644 Q1040.9348,483.5269 1042.2785,483.5269 Q1042.9035,483.5269 1043.4973,483.2612 Q1044.091,482.98 1044.716,482.4019 L1044.716,485.1206 Z " fill="#000000"/><text fill="#000000" font-family="sans-serif" font-size="14" lengthAdjust="spacing" textLength="100.249" x="1059.7355" y="484.3267">LoggerService</text><line style="stroke:#181818;stroke-width:0.5;" x1="1009.8" x2="1179.9318" y1="495.48" y2="495.48"/><line style="stroke:#181818;stroke-width:0.5;" x1="1009.8" x2="1179.9318" y1="503.48" y2="503.48"/><ellipse cx="1019.8" cy="517.1284" fill="#84BE84" rx="3" ry="3" style="stroke:#038048;stroke-width:1;"/><text fill="#000000" font-family="sans-serif" font-size="14" lengthAdjust="spacing" textLength="146.1318" x="1028.8" y="520.4751">log(message: String)</text></g><!--class AuthController--><g class="entity" data-entity="AuthController" data-source-line="18" data-uid="ent0006" id="entity_AuthController"><rect fill="#F1F1F1" height="80.5938" rx="2.5" ry="2.5" style="stroke:#181818;stroke-width:0.5;" width="562.1426" x="411.79" y="148.29"/><ellipse cx="637.6186" cy="164.29" fill="#ADD1B2" rx="11" ry="11" style="stroke:#181818;stroke-width:1;"/><path d="M640.5874,169.9306 Q640.0092,170.2275 639.3686,170.3681 Q638.728,170.5244 638.0249,170.5244 Q635.5249,170.5244 634.1967,168.8837 Q632.8842,167.2275 632.8842,164.1025 Q632.8842,160.9775 634.1967,159.3212 Q635.5249,157.665 638.0249,157.665 Q638.728,157.665 639.3686,157.8212 Q640.0249,157.9775 640.5874,158.2744 L640.5874,160.9931 Q639.9624,160.415 639.3686,160.1494 Q638.7749,159.8681 638.1499,159.8681 Q636.8061,159.8681 636.1186,160.9462 Q635.4311,162.0087 635.4311,164.1025 Q635.4311,166.1962 636.1186,167.2744 Q636.8061,168.3369 638.1499,168.3369 Q638.7749,168.3369 639.3686,168.0712 Q639.9624,167.79 640.5874,167.2119 L640.5874,169.9306 Z " fill="#000000"/><text fill="#000000" font-family="sans-serif" font-size="14" lengthAdjust="spacing" textLength="101.9854" x="658.1186" y="169.1367">AuthController</text><line style="stroke:#181818;stroke-width:0.5;" x1="412.79" x2="972.9326" y1="180.29" y2="180.29"/><line style="stroke:#181818;stroke-width:0.5;" x1="412.79" x2="972.9326" y1="188.29" y2="188.29"/><ellipse cx="422.79" cy="201.9384" fill="#84BE84" rx="3" ry="3" style="stroke:#038048;stroke-width:1;"/><text fill="#000000" font-family="sans-serif" font-size="14" lengthAdjust="spacing" textLength="343.7246" x="431.79" y="205.2851">login(username: String, password: String): String</text><ellipse cx="422.79" cy="218.2353" fill="#84BE84" rx="3" ry="3" style="stroke:#038048;stroke-width:1;"/><text fill="#000000" font-family="sans-serif" font-size="14" lengthAdjust="spacing" textLength="536.1426" x="431.79" y="221.582">checkAppAccess(token: String, username: String, application: String): String</text></g><!--class AuthRequest--><g class="entity" data-entity="AuthRequest" data-source-line="23" data-uid="ent0007" id="entity_AuthRequest"><rect fill="#F1F1F1" height="96.8906" rx="2.5" ry="2.5" style="stroke:#181818;stroke-width:0.5;" width="147.1875" x="118.27" y="604.78"/><ellipse cx="144.4651" cy="620.78" fill="#ADD1B2" rx="11" ry="11" style="stroke:#181818;stroke-width:1;"/><path d="M147.4338,626.4206 Q146.8557,626.7175 146.2151,626.8581 Q145.5744,627.0144 144.8713,627.0144 Q142.3713,627.0144 141.0432,625.3738 Q139.7307,623.7175 139.7307,620.5925 Q139.7307,617.4675 141.0432,615.8113 Q142.3713,614.155 144.8713,614.155 Q145.5744,614.155 146.2151,614.3113 Q146.8713,614.4675 147.4338,614.7644 L147.4338,617.4831 Q146.8088,616.905 146.2151,616.6394 Q145.6213,616.3581 144.9963,616.3581 Q143.6526,616.3581 142.9651,617.4363 Q142.2776,618.4988 142.2776,620.5925 Q142.2776,622.6863 142.9651,623.7644 Q143.6526,624.8269 144.9963,624.8269 Q145.6213,624.8269 146.2151,624.5613 Q146.8088,624.28 147.4338,623.7019 L147.4338,626.4206 Z " fill="#000000"/><text fill="#000000" font-family="sans-serif" font-size="14" lengthAdjust="spacing" textLength="90.3096" x="160.9529" y="625.6267">AuthRequest</text><line style="stroke:#181818;stroke-width:0.5;" x1="119.27" x2="264.4575" y1="636.78" y2="636.78"/><rect fill="none" height="6" style="stroke:#C82930;stroke-width:1;" width="6" x="126.27" y="647.4284"/><text fill="#000000" font-family="sans-serif" font-size="14" lengthAdjust="spacing" textLength="121.1875" x="138.27" y="653.7751">username: String</text><rect fill="none" height="6" style="stroke:#C82930;stroke-width:1;" width="6" x="126.27" y="663.7253"/><text fill="#000000" font-family="sans-serif" font-size="14" lengthAdjust="spacing" textLength="117.6602" x="138.27" y="670.072">password: String</text><line style="stroke:#181818;stroke-width:0.5;" x1="119.27" x2="264.4575" y1="677.3738" y2="677.3738"/><ellipse cx="129.27" cy="691.0222" fill="#84BE84" rx="3" ry="3" style="stroke:#038048;stroke-width:1;"/><text fill="#000000" font-family="sans-serif" font-size="14" lengthAdjust="spacing" textLength="104.7881" x="138.27" y="694.3689">toJson(): String</text></g><!--class Main--><g class="entity" data-entity="Main" data-source-line="29" data-uid="ent0008" id="entity_Main"><rect fill="#F1F1F1" height="64.2969" rx="2.5" ry="2.5" style="stroke:#181818;stroke-width:0.5;" width="164.291" x="610.72" y="7"/><ellipse cx="671.9051" cy="23" fill="#ADD1B2" rx="11" ry="11" style="stroke:#181818;stroke-width:1;"/><path d="M674.8738,28.6406 Q674.2957,28.9375 673.6551,29.0781 Q673.0144,29.2344 672.3113,29.2344 Q669.8113,29.2344 668.4832,27.5938 Q667.1707,25.9375 667.1707,22.8125 Q667.1707,19.6875 668.4832,18.0313 Q669.8113,16.375 672.3113,16.375 Q673.0144,16.375 673.6551,16.5313 Q674.3113,16.6875 674.8738,16.9844 L674.8738,19.7031 Q674.2488,19.125 673.6551,18.8594 Q673.0613,18.5781 672.4363,18.5781 Q671.0926,18.5781 670.4051,19.6563 Q669.7176,20.7188 669.7176,22.8125 Q669.7176,24.9063 670.4051,25.9844 Q671.0926,27.0469 672.4363,27.0469 Q673.0613,27.0469 673.6551,26.7813 Q674.2488,26.5 674.8738,25.9219 L674.8738,28.6406 Z " fill="#000000"/><text fill="#000000" font-family="sans-serif" font-size="14" lengthAdjust="spacing" textLength="33.4209" x="692.4051" y="27.8467">Main</text><line style="stroke:#181818;stroke-width:0.5;" x1="611.72" x2="774.011" y1="39" y2="39"/><line style="stroke:#181818;stroke-width:0.5;" x1="611.72" x2="774.011" y1="47" y2="47"/><ellipse cx="621.72" cy="60.6484" fill="#84BE84" rx="3" ry="3" style="stroke:#038048;stroke-width:1;"/><text fill="#000000" font-family="sans-serif" font-size="14" lengthAdjust="spacing" textLength="138.291" x="630.72" y="63.9951">main(args: String[])</text></g><!--link AuthFacade to UserService--><g class="link" data-entity-1="AuthFacade" data-entity-2="UserService" data-source-line="33" data-uid="lnk9" id="link_AuthFacade_UserService"><path codeLine="33" d="M557.94,386.89 C476.79,410.77 380.6759,439.066 305.0059,461.336" fill="none" id="AuthFacade-to-UserService" style="stroke:#181818;stroke-width:1;"/><polygon fill="#181818" points="299.25,463.03,309.0132,464.3263,304.0466,461.6183,306.7545,456.6518,299.25,463.03" style="stroke:#181818;stroke-width:1;"/><text fill="#000000" font-family="sans-serif" font-size="13" lengthAdjust="spacing" textLength="130.019" x="458.86" y="429.5469">maakt instantie van</text></g><!--link AuthFacade to TokenService--><g class="link" data-entity-1="AuthFacade" data-entity-2="TokenService" data-source-line="34" data-uid="lnk10" id="link_AuthFacade_TokenService"><path codeLine="34" d="M692.86,386.7 C692.86,410.75 692.86,435.05 692.86,457.42" fill="none" id="AuthFacade-to-TokenService" style="stroke:#181818;stroke-width:1;"/><polygon fill="#181818" points="692.86,463.42,696.86,454.42,692.86,458.42,688.86,454.42,692.86,463.42" style="stroke:#181818;stroke-width:1;"/><text fill="#000000" font-family="sans-serif" font-size="13" lengthAdjust="spacing" textLength="130.019" x="693.86" y="429.5469">maakt instantie van</text></g><!--link AuthFacade to LoggerService--><g class="link" data-entity-1="AuthFacade" data-entity-2="LoggerService" data-source-line="35" data-uid="lnk11" id="link_AuthFacade_LoggerService"><path codeLine="35" d="M801.12,386.89 C866.23,410.77 942.347,438.6937 1003.057,460.9637" fill="none" id="AuthFacade-to-LoggerService" style="stroke:#181818;stroke-width:1;"/><polygon fill="#181818" points="1008.69,463.03,1001.6181,456.1752,1003.9959,461.3081,998.863,463.6858,1008.69,463.03" style="stroke:#181818;stroke-width:1;"/><text fill="#000000" font-family="sans-serif" font-size="13" lengthAdjust="spacing" textLength="130.019" x="919.86" y="429.5469">maakt instantie van</text></g><!--link AuthController to AuthFacade--><g class="link" data-entity-1="AuthController" data-entity-2="AuthFacade" data-source-line="36" data-uid="lnk12" id="link_AuthController_AuthFacade"><path codeLine="36" d="M692.86,229.26 C692.86,252.67 692.86,276.2 692.86,299.59" fill="none" id="AuthController-to-AuthFacade" style="stroke:#181818;stroke-width:1;"/><polygon fill="#181818" points="692.86,305.59,696.86,296.59,692.86,300.59,688.86,296.59,692.86,305.59" style="stroke:#181818;stroke-width:1;"/><text fill="#000000" font-family="sans-serif" font-size="13" lengthAdjust="spacing" textLength="130.019" x="693.86" y="271.9569">maakt instantie van</text></g><!--link Main to AuthController--><g class="link" data-entity-1="Main" data-entity-2="AuthController" data-source-line="37" data-uid="lnk13" id="link_Main_AuthController"><path codeLine="37" d="M692.86,71.78 C692.86,94.03 692.86,117.98 692.86,141.85" fill="none" id="Main-to-AuthController" style="stroke:#181818;stroke-width:1;"/><polygon fill="#181818" points="692.86,147.85,696.86,138.85,692.86,142.85,688.86,138.85,692.86,147.85" style="stroke:#181818;stroke-width:1;"/><text fill="#000000" font-family="sans-serif" font-size="13" lengthAdjust="spacing" textLength="130.019" x="693.86" y="114.3569">maakt instantie van</text></g><!--link UserService to AuthRequest--><g class="link" data-entity-1="UserService" data-entity-2="AuthRequest" data-source-line="38" data-uid="lnk14" id="link_UserService_AuthRequest"><path codeLine="38" d="M191.86,528.12 C191.86,550.05 191.86,573.71 191.86,598.53" fill="none" id="UserService-to-AuthRequest" style="stroke:#181818;stroke-width:1;"/><polygon fill="#181818" points="191.86,604.53,195.86,595.53,191.86,599.53,187.86,595.53,191.86,604.53" style="stroke:#181818;stroke-width:1;"/><text fill="#000000" font-family="sans-serif" font-size="13" lengthAdjust="spacing" textLength="54.3232" x="192.86" y="570.8469">gebruikt</text></g><!--SRC=[pPAnJiCm48RtF8N7L90No50fGc90iBHqGWo7UtAj96TZNyg0U7US1BTE6YGaX8IdatNVx__ydsp0Ur5rVBW52NiKxva8vwenIbFUUNG4BPPYoqwJkXOsjByPjuytgrYCc3oWh2jhAodH-vnDZNI6B-N0saPBO6teKl4Zo-HWRnUuBRgZbh_mTr9xx4tDvFx6zxrHQibvteP7G9tqLcUaJ-B643lJDEZ-PHgznGs-TkZvorynbnflv-v6KspklA5yGVW1DCM9sr3du9IFRK_FmoybcreKwybcbA85g5beyWp46iKHQ0vCmlyHCGtnUoH9hSSIbMLcc3Ps9l1oTpfeX688fL3uuZfTyoS0]--></g></svg>