<svg xmlns="http://www.w3.org/2000/svg" xmlns:xlink="http://www.w3.org/1999/xlink" contentStyleType="text/css" data-diagram-type="SEQUENCE" height="645px" preserveAspectRatio="none" style="width:1505px;height:645px;background:#FFFFFF;" version="1.1" viewBox="0 0 1505 645" width="1505px" zoomAndPan="magnify"><defs/><g><g><title>User</title><rect fill="#000000" fill-opacity="0.00000" height="482.9922" width="8" x="19.9551" y="81.2969"/><line style="stroke:#181818;stroke-width:0.5;stroke-dasharray:5.0,5.0;" x1="23" x2="23" y1="81.2969" y2="564.2891"/></g><g><title>AuthController</title><rect fill="#000000" fill-opacity="0.00000" height="482.9922" width="8" x="407.9995" y="81.2969"/><line style="stroke:#181818;stroke-width:0.5;stroke-dasharray:5.0,5.0;" x1="411.0068" x2="411.0068" y1="81.2969" y2="564.2891"/></g><g><title>AuthFacade</title><rect fill="#000000" fill-opacity="0.00000" height="482.9922" width="8" x="740.6099" y="81.2969"/><line style="stroke:#181818;stroke-width:0.5;stroke-dasharray:5.0,5.0;" x1="743.9995" x2="743.9995" y1="81.2969" y2="564.2891"/></g><g><title>UserService</title><rect fill="#000000" fill-opacity="0.00000" height="482.9922" width="8" x="941.8555" y="81.2969"/><line style="stroke:#181818;stroke-width:0.5;stroke-dasharray:5.0,5.0;" x1="945.0298" x2="945.0298" y1="81.2969" y2="564.2891"/></g><g><title>TokenService</title><rect fill="#000000" fill-opacity="0.00000" height="482.9922" width="8" x="1162.9668" y="81.2969"/><line style="stroke:#181818;stroke-width:0.5;stroke-dasharray:5.0,5.0;" x1="1166.7407" x2="1166.7407" y1="81.2969" y2="564.2891"/></g><g><title>LoggerService</title><rect fill="#000000" fill-opacity="0.00000" height="482.9922" width="8" x="1438.4077" y="81.2969"/><line style="stroke:#181818;stroke-width:0.5;stroke-dasharray:5.0,5.0;" x1="1442.2832" x2="1442.2832" y1="81.2969" y2="564.2891"/></g><g class="participant participant-head" data-participant="User"><text fill="#000000" font-family="sans-serif" font-size="14" lengthAdjust="spacing" textLength="31.9102" x="5" y="77.9951">User</text><ellipse cx="23.9551" cy="13.5" fill="#E2E2F0" rx="8" ry="8" style="stroke:#181818;stroke-width:0.5;"/><path d="M23.9551,21.5 L23.9551,48.5 M10.9551,29.5 L36.9551,29.5 M23.9551,48.5 L10.9551,63.5 M23.9551,48.5 L36.9551,63.5" fill="none" style="stroke:#181818;stroke-width:0.5;"/></g><g class="participant participant-tail" data-participant="User"><text fill="#000000" font-family="sans-serif" font-size="14" lengthAdjust="spacing" textLength="31.9102" x="5" y="576.2842">User</text><ellipse cx="23.9551" cy="588.0859" fill="#E2E2F0" rx="8" ry="8" style="stroke:#181818;stroke-width:0.5;"/><path d="M23.9551,596.0859 L23.9551,623.0859 M10.9551,604.0859 L36.9551,604.0859 M23.9551,623.0859 L10.9551,638.0859 M23.9551,623.0859 L36.9551,638.0859" fill="none" style="stroke:#181818;stroke-width:0.5;"/></g><g class="participant participant-head" data-participant="AC"><rect fill="#E2E2F0" height="30.2969" rx="2.5" ry="2.5" style="stroke:#181818;stroke-width:0.5;" width="115.9854" x="354.0068" y="50"/><text fill="#000000" font-family="sans-serif" font-size="14" lengthAdjust="spacing" textLength="101.9854" x="361.0068" y="69.9951">AuthController</text></g><g class="participant participant-tail" data-participant="AC"><rect fill="#E2E2F0" height="30.2969" rx="2.5" ry="2.5" style="stroke:#181818;stroke-width:0.5;" width="115.9854" x="354.0068" y="563.2891"/><text fill="#000000" font-family="sans-serif" font-size="14" lengthAdjust="spacing" textLength="101.9854" x="361.0068" y="583.2842">AuthController</text></g><g class="participant participant-head" data-participant="AF"><rect fill="#E2E2F0" height="30.2969" rx="2.5" ry="2.5" style="stroke:#181818;stroke-width:0.5;" width="97.2207" x="695.9995" y="50"/><text fill="#000000" font-family="sans-serif" font-size="14" lengthAdjust="spacing" textLength="83.2207" x="702.9995" y="69.9951">AuthFacade</text></g><g class="participant participant-tail" data-participant="AF"><rect fill="#E2E2F0" height="30.2969" rx="2.5" ry="2.5" style="stroke:#181818;stroke-width:0.5;" width="97.2207" x="695.9995" y="563.2891"/><text fill="#000000" font-family="sans-serif" font-size="14" lengthAdjust="spacing" textLength="83.2207" x="702.9995" y="583.2842">AuthFacade</text></g><g class="participant participant-head" data-participant="US"><rect fill="#E2E2F0" height="30.2969" rx="2.5" ry="2.5" style="stroke:#181818;stroke-width:0.5;" width="97.6514" x="897.0298" y="50"/><text fill="#000000" font-family="sans-serif" font-size="14" lengthAdjust="spacing" textLength="83.6514" x="904.0298" y="69.9951">UserService</text></g><g class="participant participant-tail" data-participant="US"><rect fill="#E2E2F0" height="30.2969" rx="2.5" ry="2.5" style="stroke:#181818;stroke-width:0.5;" width="97.6514" x="897.0298" y="563.2891"/><text fill="#000000" font-family="sans-serif" font-size="14" lengthAdjust="spacing" textLength="83.6514" x="904.0298" y="583.2842">UserService</text></g><g class="participant participant-head" data-participant="TS"><rect fill="#E2E2F0" height="30.2969" rx="2.5" ry="2.5" style="stroke:#181818;stroke-width:0.5;" width="108.4521" x="1112.7407" y="50"/><text fill="#000000" font-family="sans-serif" font-size="14" lengthAdjust="spacing" textLength="94.4521" x="1119.7407" y="69.9951">TokenService</text></g><g class="participant participant-tail" data-participant="TS"><rect fill="#E2E2F0" height="30.2969" rx="2.5" ry="2.5" style="stroke:#181818;stroke-width:0.5;" width="108.4521" x="1112.7407" y="563.2891"/><text fill="#000000" font-family="sans-serif" font-size="14" lengthAdjust="spacing" textLength="94.4521" x="1119.7407" y="583.2842">TokenService</text></g><g class="participant participant-head" data-participant="LS"><rect fill="#E2E2F0" height="30.2969" rx="2.5" ry="2.5" style="stroke:#181818;stroke-width:0.5;" width="114.249" x="1385.2832" y="50"/><text fill="#000000" font-family="sans-serif" font-size="14" lengthAdjust="spacing" textLength="100.249" x="1392.2832" y="69.9951">LoggerService</text></g><g class="participant participant-tail" data-participant="LS"><rect fill="#E2E2F0" height="30.2969" rx="2.5" ry="2.5" style="stroke:#181818;stroke-width:0.5;" width="114.249" x="1385.2832" y="563.2891"/><text fill="#000000" font-family="sans-serif" font-size="14" lengthAdjust="spacing" textLength="100.249" x="1392.2832" y="583.2842">LoggerService</text></g><g class="message" data-participant-1="User" data-participant-2="AC"><polygon fill="#181818" points="399.9995,108.4297,409.9995,112.4297,399.9995,116.4297,403.9995,112.4297" style="stroke:#181818;stroke-width:1;"/><line style="stroke:#181818;stroke-width:1;" x1="23.9551" x2="405.9995" y1="112.4297" y2="112.4297"/><text fill="#000000" font-family="sans-serif" font-size="13" lengthAdjust="spacing" textLength="258.0767" x="30.9551" y="107.3638">POST /auth/login (username, password)</text></g><g class="message" data-participant-1="AC" data-participant-2="AF"><polygon fill="#181818" points="732.6099,137.5625,742.6099,141.5625,732.6099,145.5625,736.6099,141.5625" style="stroke:#181818;stroke-width:1;"/><line style="stroke:#181818;stroke-width:1;" x1="411.9995" x2="738.6099" y1="141.5625" y2="141.5625"/><text fill="#000000" font-family="sans-serif" font-size="13" lengthAdjust="spacing" textLength="177.2456" x="418.9995" y="136.4966">login(username, password)</text></g><g class="message" data-participant-1="AF" data-participant-2="US"><polygon fill="#181818" points="933.8555,166.6953,943.8555,170.6953,933.8555,174.6953,937.8555,170.6953" style="stroke:#181818;stroke-width:1;"/><line style="stroke:#181818;stroke-width:1;" x1="744.6099" x2="939.8555" y1="170.6953" y2="170.6953"/><text fill="#000000" font-family="sans-serif" font-size="13" lengthAdjust="spacing" textLength="177.2456" x="751.6099" y="165.6294">login(username, password)</text></g><g class="message" data-participant-1="US" data-participant-2="US"><line style="stroke:#181818;stroke-width:1;" x1="945.8555" x2="987.8555" y1="199.8281" y2="199.8281"/><line style="stroke:#181818;stroke-width:1;" x1="987.8555" x2="987.8555" y1="199.8281" y2="212.8281"/><line style="stroke:#181818;stroke-width:1;" x1="946.8555" x2="987.8555" y1="212.8281" y2="212.8281"/><polygon fill="#181818" points="956.8555,208.8281,946.8555,212.8281,956.8555,216.8281,952.8555,212.8281" style="stroke:#181818;stroke-width:1;"/><text fill="#000000" font-family="sans-serif" font-size="13" lengthAdjust="spacing" textLength="207.1113" x="952.8555" y="194.7622">Send HTTP request to login URL</text></g><g class="message" data-participant-1="US" data-participant-2="AF"><polygon fill="#181818" points="755.6099,237.9609,745.6099,241.9609,755.6099,245.9609,751.6099,241.9609" style="stroke:#181818;stroke-width:1;"/><line style="stroke:#181818;stroke-width:1;" x1="749.6099" x2="944.8555" y1="241.9609" y2="241.9609"/><text fill="#000000" font-family="sans-serif" font-size="13" lengthAdjust="spacing" textLength="84.8999" x="761.6099" y="236.895">Return token</text></g><g class="message" data-participant-1="AF" data-participant-2="LS"><polygon fill="#181818" points="1430.4077,267.0938,1440.4077,271.0938,1430.4077,275.0938,1434.4077,271.0938" style="stroke:#181818;stroke-width:1;"/><line style="stroke:#181818;stroke-width:1;" x1="744.6099" x2="1436.4077" y1="271.0938" y2="271.0938"/><text fill="#000000" font-family="sans-serif" font-size="13" lengthAdjust="spacing" textLength="189.0269" x="751.6099" y="266.0278">log("Login successful/failed")</text></g><g class="message" data-participant-1="AF" data-participant-2="AC"><polygon fill="#181818" points="422.9995,296.2266,412.9995,300.2266,422.9995,304.2266,418.9995,300.2266" style="stroke:#181818;stroke-width:1;"/><line style="stroke:#181818;stroke-width:1;" x1="416.9995" x2="743.6099" y1="300.2266" y2="300.2266"/><text fill="#000000" font-family="sans-serif" font-size="13" lengthAdjust="spacing" textLength="84.8999" x="428.9995" y="295.1606">Return token</text></g><g class="message" data-participant-1="AC" data-participant-2="User"><polygon fill="#181818" points="34.9551,325.3594,24.9551,329.3594,34.9551,333.3594,30.9551,329.3594" style="stroke:#181818;stroke-width:1;"/><line style="stroke:#181818;stroke-width:1;" x1="28.9551" x2="410.9995" y1="329.3594" y2="329.3594"/><text fill="#000000" font-family="sans-serif" font-size="13" lengthAdjust="spacing" textLength="84.8999" x="40.9551" y="324.2935">Return token</text></g><g class="message" data-participant-1="User" data-participant-2="AC"><polygon fill="#181818" points="399.9995,354.4922,409.9995,358.4922,399.9995,362.4922,403.9995,358.4922" style="stroke:#181818;stroke-width:1;"/><line style="stroke:#181818;stroke-width:1;" x1="23.9551" x2="405.9995" y1="358.4922" y2="358.4922"/><text fill="#000000" font-family="sans-serif" font-size="13" lengthAdjust="spacing" textLength="364.0444" x="30.9551" y="353.4263">POST /auth/checkAccess (token, username, application)</text></g><g class="message" data-participant-1="AC" data-participant-2="AF"><polygon fill="#181818" points="732.6099,383.625,742.6099,387.625,732.6099,391.625,736.6099,387.625" style="stroke:#181818;stroke-width:1;"/><line style="stroke:#181818;stroke-width:1;" x1="411.9995" x2="738.6099" y1="387.625" y2="387.625"/><text fill="#000000" font-family="sans-serif" font-size="13" lengthAdjust="spacing" textLength="308.6104" x="418.9995" y="382.5591">checkAppAccess(token, username, application)</text></g><g class="message" data-participant-1="AF" data-participant-2="TS"><polygon fill="#181818" points="1154.9668,412.7578,1164.9668,416.7578,1154.9668,420.7578,1158.9668,416.7578" style="stroke:#181818;stroke-width:1;"/><line style="stroke:#181818;stroke-width:1;" x1="744.6099" x2="1160.9668" y1="416.7578" y2="416.7578"/><text fill="#000000" font-family="sans-serif" font-size="13" lengthAdjust="spacing" textLength="308.6104" x="751.6099" y="411.6919">checkAppAccess(token, username, application)</text></g><g class="message" data-participant-1="TS" data-participant-2="TS"><line style="stroke:#181818;stroke-width:1;" x1="1166.9668" x2="1208.9668" y1="445.8906" y2="445.8906"/><line style="stroke:#181818;stroke-width:1;" x1="1208.9668" x2="1208.9668" y1="445.8906" y2="458.8906"/><line style="stroke:#181818;stroke-width:1;" x1="1167.9668" x2="1208.9668" y1="458.8906" y2="458.8906"/><polygon fill="#181818" points="1177.9668,454.8906,1167.9668,458.8906,1177.9668,462.8906,1173.9668,458.8906" style="stroke:#181818;stroke-width:1;"/><text fill="#000000" font-family="sans-serif" font-size="13" lengthAdjust="spacing" textLength="261.4409" x="1173.9668" y="440.8247">Send HTTP request to check access URL</text></g><g class="message" data-participant-1="TS" data-participant-2="AF"><polygon fill="#181818" points="755.6099,484.0234,745.6099,488.0234,755.6099,492.0234,751.6099,488.0234" style="stroke:#181818;stroke-width:1;"/><line style="stroke:#181818;stroke-width:1;" x1="749.6099" x2="1165.9668" y1="488.0234" y2="488.0234"/><text fill="#000000" font-family="sans-serif" font-size="13" lengthAdjust="spacing" textLength="155.3525" x="761.6099" y="482.9575">Return access response</text></g><g class="message" data-participant-1="AF" data-participant-2="AC"><polygon fill="#181818" points="422.9995,513.1563,412.9995,517.1563,422.9995,521.1563,418.9995,517.1563" style="stroke:#181818;stroke-width:1;"/><line style="stroke:#181818;stroke-width:1;" x1="416.9995" x2="743.6099" y1="517.1563" y2="517.1563"/><text fill="#000000" font-family="sans-serif" font-size="13" lengthAdjust="spacing" textLength="155.3525" x="428.9995" y="512.0903">Return access response</text></g><g class="message" data-participant-1="AC" data-participant-2="User"><polygon fill="#181818" points="34.9551,542.2891,24.9551,546.2891,34.9551,550.2891,30.9551,546.2891" style="stroke:#181818;stroke-width:1;"/><line style="stroke:#181818;stroke-width:1;" x1="28.9551" x2="410.9995" y1="546.2891" y2="546.2891"/><text fill="#000000" font-family="sans-serif" font-size="13" lengthAdjust="spacing" textLength="155.3525" x="40.9551" y="541.2231">Return access response</text></g><!--SRC=[bP31QiCm44Jl_eebfnHISi-XO0oc1qD397_08cyS4KTI9Rdz_LgIJMCxRUbvtipk30glBTIER6RGUYcaGULXa_V-KcZbhUuwiXj01tcnHaeKs52IoxaSCXdP3ocINhEvplMLr3t05q2bstOUKR4i2x7m_39ySu3Z6-Emn-6FVQTRgM3R3wh26-t0e7EVsZPFMLv4lZn0X1upPM1gzXjJiubXf1fuvVm8bjvxSXwyJaQeJzK8XeCdyhrLWpfK7MzKwSOsr1jurmj1pftxRdz6sL6pcPu91UV-s2FqNmW_RI8k9Avvp8TjH7VmNGoDwQH0BxMwtoYPZ4c-lspnKyx-QUDiiZrSCcO1fiV3e7mvwAXPSaOhH-l5Li1wkmNo1G00]--></g></svg>