<svg xmlns="http://www.w3.org/2000/svg" xmlns:xlink="http://www.w3.org/1999/xlink" contentStyleType="text/css" data-diagram-type="CLASS" height="702px" preserveAspectRatio="none" style="width:1187px;height:702px;background:#FFFFFF;" version="1.1" viewBox="0 0 1187 702" width="1187px" zoomAndPan="magnify"><title>Backend die met externe service communiceert met Facade Pattern (Klassendiagram)</title><defs/><g><g class="title" data-source-line="1"><text fill="#000000" font-family="sans-serif" font-size="14" font-weight="bold" lengthAdjust="spacing" textLength="682.165" x="245.8834" y="22.9951">Backend die met externe service communiceert met Facade Pattern (Klassendiagram)</text></g><!--class AuthFacade--><g class="entity" data-entity="AuthFacade" data-source-line="3" data-uid="ent0002" id="entity_AuthFacade"><rect fill="#F1F1F1" height="129.4844" rx="2.5" ry="2.5" style="stroke:#181818;stroke-width:0.5;" width="562.1426" x="411.79" y="218.1869"/><ellipse cx="647.0009" cy="234.1869" fill="#ADD1B2" rx="11" ry="11" style="stroke:#181818;stroke-width:1;"/><path d="M649.9697,239.8275 Q649.3916,240.1244 648.7509,240.265 Q648.1103,240.4213 647.4072,240.4213 Q644.9072,240.4213 643.5791,238.7806 Q642.2666,237.1244 642.2666,233.9994 Q642.2666,230.8744 643.5791,229.2181 Q644.9072,227.5619 647.4072,227.5619 Q648.1103,227.5619 648.7509,227.7181 Q649.4072,227.8744 649.9697,228.1713 L649.9697,230.89 Q649.3447,230.3119 648.7509,230.0463 Q648.1572,229.765 647.5322,229.765 Q646.1884,229.765 645.5009,230.8431 Q644.8134,231.9056 644.8134,233.9994 Q644.8134,236.0931 645.5009,237.1713 Q646.1884,238.2338 647.5322,238.2338 Q648.1572,238.2338 648.7509,237.9681 Q649.3447,237.6869 649.9697,237.1088 L649.9697,239.8275 Z " fill="#000000"/><text fill="#000000" font-family="sans-serif" font-size="14" lengthAdjust="spacing" textLength="83.2207" x="667.5009" y="239.0336">AuthFacade</text><line style="stroke:#181818;stroke-width:0.5;" x1="412.79" x2="972.9326" y1="250.1869" y2="250.1869"/><rect fill="none" height="6" style="stroke:#C82930;stroke-width:1;" width="6" x="419.79" y="260.8353"/><text fill="#000000" font-family="sans-serif" font-size="14" lengthAdjust="spacing" textLength="175.0957" x="431.79" y="267.182">userService: UserService</text><rect fill="none" height="6" style="stroke:#C82930;stroke-width:1;" width="6" x="419.79" y="277.1322"/><text fill="#000000" font-family="sans-serif" font-size="14" lengthAdjust="spacing" textLength="195.0088" x="431.79" y="283.4789">tokenService: TokenService</text><rect fill="none" height="6" style="stroke:#C82930;stroke-width:1;" width="6" x="419.79" y="293.4291"/><text fill="#000000" font-family="sans-serif" font-size="14" lengthAdjust="spacing" textLength="205.7549" x="431.79" y="299.7757">loggerService: LoggerService</text><line style="stroke:#181818;stroke-width:0.5;" x1="412.79" x2="972.9326" y1="307.0775" y2="307.0775"/><ellipse cx="422.79" cy="320.7259" fill="#84BE84" rx="3" ry="3" style="stroke:#038048;stroke-width:1;"/><text fill="#000000" font-family="sans-serif" font-size="14" lengthAdjust="spacing" textLength="343.7246" x="431.79" y="324.0726">login(username: String, password: String): String</text><ellipse cx="422.79" cy="337.0228" fill="#84BE84" rx="3" ry="3" style="stroke:#038048;stroke-width:1;"/><text fill="#000000" font-family="sans-serif" font-size="14" lengthAdjust="spacing" textLength="536.1426" x="431.79" y="340.3695">checkAppAccess(token: String, username: String, application: String): String</text></g><!--class UserService--><g class="entity" data-entity="UserService" data-source-line="11" data-uid="ent0003" id="entity_UserService"><rect fill="#F1F1F1" height="96.8906" rx="2.5" ry="2.5" style="stroke:#181818;stroke-width:0.5;" width="369.7246" x="7" y="424.6769"/><ellipse cx="145.7866" cy="440.6769" fill="#ADD1B2" rx="11" ry="11" style="stroke:#181818;stroke-width:1;"/><path d="M148.7554,446.3175 Q148.1772,446.6144 147.5366,446.755 Q146.896,446.9113 146.1929,446.9113 Q143.6929,446.9113 142.3647,445.2706 Q141.0522,443.6144 141.0522,440.4894 Q141.0522,437.3644 142.3647,435.7081 Q143.6929,434.0519 146.1929,434.0519 Q146.896,434.0519 147.5366,434.2081 Q148.1929,434.3644 148.7554,434.6613 L148.7554,437.38 Q148.1304,436.8019 147.5366,436.5363 Q146.9429,436.255 146.3179,436.255 Q144.9741,436.255 144.2866,437.3331 Q143.5991,438.3956 143.5991,440.4894 Q143.5991,442.5831 144.2866,443.6613 Q144.9741,444.7238 146.3179,444.7238 Q146.9429,444.7238 147.5366,444.4581 Q148.1304,444.1769 148.7554,443.5988 L148.7554,446.3175 Z " fill="#000000"/><text fill="#000000" font-family="sans-serif" font-size="14" lengthAdjust="spacing" textLength="83.6514" x="166.2866" y="445.5236">UserService</text><line style="stroke:#181818;stroke-width:0.5;" x1="8" x2="375.7246" y1="456.6769" y2="456.6769"/><rect fill="none" height="6" style="stroke:#C82930;stroke-width:1;" width="6" x="15" y="467.3253"/><text fill="#000000" font-family="sans-serif" font-size="14" lengthAdjust="spacing" textLength="149.3584" x="27" y="473.672">httpClient: HttpClient</text><rect fill="none" height="6" style="stroke:#C82930;stroke-width:1;" width="6" x="15" y="483.6222"/><text fill="#000000" font-family="sans-serif" font-size="14" lengthAdjust="spacing" textLength="207.4912" x="27" y="489.9689">static final String: LOGIN_URL</text><line style="stroke:#181818;stroke-width:0.5;" x1="8" x2="375.7246" y1="497.2706" y2="497.2706"/><ellipse cx="18" cy="510.9191" fill="#84BE84" rx="3" ry="3" style="stroke:#038048;stroke-width:1;"/><text fill="#000000" font-family="sans-serif" font-size="14" lengthAdjust="spacing" textLength="343.7246" x="27" y="514.2657">login(username: String, password: String): String</text></g><!--class TokenService--><g class="entity" data-entity="TokenService" data-source-line="17" data-uid="ent0004" id="entity_TokenService"><rect fill="#F1F1F1" height="96.8906" rx="2.5" ry="2.5" style="stroke:#181818;stroke-width:0.5;" width="562.1426" x="411.79" y="424.6769"/><ellipse cx="641.3852" cy="440.6769" fill="#ADD1B2" rx="11" ry="11" style="stroke:#181818;stroke-width:1;"/><path d="M644.354,446.3175 Q643.7758,446.6144 643.1352,446.755 Q642.4946,446.9113 641.7915,446.9113 Q639.2915,446.9113 637.9633,445.2706 Q636.6508,443.6144 636.6508,440.4894 Q636.6508,437.3644 637.9633,435.7081 Q639.2915,434.0519 641.7915,434.0519 Q642.4946,434.0519 643.1352,434.2081 Q643.7915,434.3644 644.354,434.6613 L644.354,437.38 Q643.729,436.8019 643.1352,436.5363 Q642.5415,436.255 641.9165,436.255 Q640.5727,436.255 639.8852,437.3331 Q639.1977,438.3956 639.1977,440.4894 Q639.1977,442.5831 639.8852,443.6613 Q640.5727,444.7238 641.9165,444.7238 Q642.5415,444.7238 643.1352,444.4581 Q643.729,444.1769 644.354,443.5988 L644.354,446.3175 Z " fill="#000000"/><text fill="#000000" font-family="sans-serif" font-size="14" lengthAdjust="spacing" textLength="94.4521" x="661.8852" y="445.5236">TokenService</text><line style="stroke:#181818;stroke-width:0.5;" x1="412.79" x2="972.9326" y1="456.6769" y2="456.6769"/><rect fill="none" height="6" style="stroke:#C82930;stroke-width:1;" width="6" x="419.79" y="467.3253"/><text fill="#000000" font-family="sans-serif" font-size="14" lengthAdjust="spacing" textLength="149.3584" x="431.79" y="473.672">httpClient: HttpClient</text><rect fill="none" height="6" style="stroke:#C82930;stroke-width:1;" width="6" x="419.79" y="483.6222"/><text fill="#000000" font-family="sans-serif" font-size="14" lengthAdjust="spacing" textLength="274.0732" x="431.79" y="489.9689">static final String: CHECK_ACCESS_URL</text><line style="stroke:#181818;stroke-width:0.5;" x1="412.79" x2="972.9326" y1="497.2706" y2="497.2706"/><ellipse cx="422.79" cy="510.9191" fill="#84BE84" rx="3" ry="3" style="stroke:#038048;stroke-width:1;"/><text fill="#000000" font-family="sans-serif" font-size="14" lengthAdjust="spacing" textLength="536.1426" x="431.79" y="514.2657">checkAppAccess(token: String, username: String, application: String): String</text></g><!--class LoggerService--><g class="entity" data-entity="LoggerService" data-source-line="23" data-uid="ent0005" id="entity_LoggerService"><rect fill="#F1F1F1" height="64.2969" rx="2.5" ry="2.5" style="stroke:#181818;stroke-width:0.5;" width="172.1318" x="1008.8" y="440.9769"/><ellipse cx="1041.7473" cy="456.9769" fill="#ADD1B2" rx="11" ry="11" style="stroke:#181818;stroke-width:1;"/><path d="M1044.716,462.6175 Q1044.1379,462.9144 1043.4973,463.055 Q1042.8566,463.2112 1042.1535,463.2112 Q1039.6535,463.2112 1038.3254,461.5706 Q1037.0129,459.9144 1037.0129,456.7894 Q1037.0129,453.6644 1038.3254,452.0081 Q1039.6535,450.3519 1042.1535,450.3519 Q1042.8566,450.3519 1043.4973,450.5081 Q1044.1535,450.6644 1044.716,450.9612 L1044.716,453.68 Q1044.091,453.1019 1043.4973,452.8362 Q1042.9035,452.555 1042.2785,452.555 Q1040.9348,452.555 1040.2473,453.6331 Q1039.5598,454.6956 1039.5598,456.7894 Q1039.5598,458.8831 1040.2473,459.9612 Q1040.9348,461.0237 1042.2785,461.0237 Q1042.9035,461.0237 1043.4973,460.7581 Q1044.091,460.4769 1044.716,459.8987 L1044.716,462.6175 Z " fill="#000000"/><text fill="#000000" font-family="sans-serif" font-size="14" lengthAdjust="spacing" textLength="100.249" x="1059.7355" y="461.8236">LoggerService</text><line style="stroke:#181818;stroke-width:0.5;" x1="1009.8" x2="1179.9318" y1="472.9769" y2="472.9769"/><line style="stroke:#181818;stroke-width:0.5;" x1="1009.8" x2="1179.9318" y1="480.9769" y2="480.9769"/><ellipse cx="1019.8" cy="494.6253" fill="#84BE84" rx="3" ry="3" style="stroke:#038048;stroke-width:1;"/><text fill="#000000" font-family="sans-serif" font-size="14" lengthAdjust="spacing" textLength="146.1318" x="1028.8" y="497.972">log(message: String)</text></g><!--class AuthController--><g class="entity" data-entity="AuthController" data-source-line="27" data-uid="ent0006" id="entity_AuthController"><rect fill="#F1F1F1" height="96.8906" rx="2.5" ry="2.5" style="stroke:#181818;stroke-width:0.5;" width="562.1426" x="411.79" y="44.2969"/><ellipse cx="637.6186" cy="60.2969" fill="#ADD1B2" rx="11" ry="11" style="stroke:#181818;stroke-width:1;"/><path d="M640.5874,65.9375 Q640.0092,66.2344 639.3686,66.375 Q638.728,66.5313 638.0249,66.5313 Q635.5249,66.5313 634.1967,64.8906 Q632.8842,63.2344 632.8842,60.1094 Q632.8842,56.9844 634.1967,55.3281 Q635.5249,53.6719 638.0249,53.6719 Q638.728,53.6719 639.3686,53.8281 Q640.0249,53.9844 640.5874,54.2813 L640.5874,57 Q639.9624,56.4219 639.3686,56.1563 Q638.7749,55.875 638.1499,55.875 Q636.8061,55.875 636.1186,56.9531 Q635.4311,58.0156 635.4311,60.1094 Q635.4311,62.2031 636.1186,63.2813 Q636.8061,64.3438 638.1499,64.3438 Q638.7749,64.3438 639.3686,64.0781 Q639.9624,63.7969 640.5874,63.2188 L640.5874,65.9375 Z " fill="#000000"/><text fill="#000000" font-family="sans-serif" font-size="14" lengthAdjust="spacing" textLength="101.9854" x="658.1186" y="65.1436">AuthController</text><line style="stroke:#181818;stroke-width:0.5;" x1="412.79" x2="972.9326" y1="76.2969" y2="76.2969"/><rect fill="none" height="6" style="stroke:#C82930;stroke-width:1;" width="6" x="419.79" y="86.9453"/><text fill="#000000" font-family="sans-serif" font-size="14" lengthAdjust="spacing" textLength="174.6104" x="431.79" y="93.292">authFacade: AuthFacade</text><line style="stroke:#181818;stroke-width:0.5;" x1="412.79" x2="972.9326" y1="100.5938" y2="100.5938"/><ellipse cx="422.79" cy="114.2422" fill="#84BE84" rx="3" ry="3" style="stroke:#038048;stroke-width:1;"/><text fill="#000000" font-family="sans-serif" font-size="14" lengthAdjust="spacing" textLength="343.7246" x="431.79" y="117.5889">login(username: String, password: String): String</text><ellipse cx="422.79" cy="130.5391" fill="#84BE84" rx="3" ry="3" style="stroke:#038048;stroke-width:1;"/><text fill="#000000" font-family="sans-serif" font-size="14" lengthAdjust="spacing" textLength="536.1426" x="431.79" y="133.8857">checkAppAccess(token: String, username: String, application: String): String</text></g><!--class AuthRequest--><g class="entity" data-entity="AuthRequest" data-source-line="33" data-uid="ent0007" id="entity_AuthRequest"><rect fill="#F1F1F1" height="96.8906" rx="2.5" ry="2.5" style="stroke:#181818;stroke-width:0.5;" width="147.1875" x="118.27" y="598.5669"/><ellipse cx="144.4651" cy="614.5669" fill="#ADD1B2" rx="11" ry="11" style="stroke:#181818;stroke-width:1;"/><path d="M147.4338,620.2075 Q146.8557,620.5044 146.2151,620.645 Q145.5744,620.8013 144.8713,620.8013 Q142.3713,620.8013 141.0432,619.1606 Q139.7307,617.5044 139.7307,614.3794 Q139.7307,611.2544 141.0432,609.5981 Q142.3713,607.9419 144.8713,607.9419 Q145.5744,607.9419 146.2151,608.0981 Q146.8713,608.2544 147.4338,608.5513 L147.4338,611.27 Q146.8088,610.6919 146.2151,610.4263 Q145.6213,610.145 144.9963,610.145 Q143.6526,610.145 142.9651,611.2231 Q142.2776,612.2856 142.2776,614.3794 Q142.2776,616.4731 142.9651,617.5513 Q143.6526,618.6138 144.9963,618.6138 Q145.6213,618.6138 146.2151,618.3481 Q146.8088,618.0669 147.4338,617.4888 L147.4338,620.2075 Z " fill="#000000"/><text fill="#000000" font-family="sans-serif" font-size="14" lengthAdjust="spacing" textLength="90.3096" x="160.9529" y="619.4136">AuthRequest</text><line style="stroke:#181818;stroke-width:0.5;" x1="119.27" x2="264.4575" y1="630.5669" y2="630.5669"/><rect fill="none" height="6" style="stroke:#C82930;stroke-width:1;" width="6" x="126.27" y="641.2153"/><text fill="#000000" font-family="sans-serif" font-size="14" lengthAdjust="spacing" textLength="121.1875" x="138.27" y="647.562">username: String</text><rect fill="none" height="6" style="stroke:#C82930;stroke-width:1;" width="6" x="126.27" y="657.5122"/><text fill="#000000" font-family="sans-serif" font-size="14" lengthAdjust="spacing" textLength="117.6602" x="138.27" y="663.8589">password: String</text><line style="stroke:#181818;stroke-width:0.5;" x1="119.27" x2="264.4575" y1="671.1606" y2="671.1606"/><ellipse cx="129.27" cy="684.8091" fill="#84BE84" rx="3" ry="3" style="stroke:#038048;stroke-width:1;"/><text fill="#000000" font-family="sans-serif" font-size="14" lengthAdjust="spacing" textLength="104.7881" x="138.27" y="688.1557">toJson(): String</text></g><!--link AuthFacade to UserService--><g class="link" data-entity-1="AuthFacade" data-entity-2="UserService" data-source-line="39" data-uid="lnk8" id="link_AuthFacade_UserService"><path codeLine="39" d="M521.85,348.1669 C455.52,373.0869 386.5067,399.0068 325.0167,422.1068" fill="none" id="AuthFacade-to-UserService" style="stroke:#181818;stroke-width:1;"/><polygon fill="#181818" points="319.4,424.2169,329.2318,424.7963,324.0806,422.4585,326.4184,417.3073,319.4,424.2169" style="stroke:#181818;stroke-width:1;"/><text fill="#000000" font-family="sans-serif" font-size="13" lengthAdjust="spacing" textLength="130.019" x="443.86" y="390.7438">maakt instantie van</text></g><!--link AuthFacade to TokenService--><g class="link" data-entity-1="AuthFacade" data-entity-2="TokenService" data-source-line="40" data-uid="lnk9" id="link_AuthFacade_TokenService"><path codeLine="40" d="M692.86,348.1669 C692.86,373.0869 692.86,395.1169 692.86,418.2169" fill="none" id="AuthFacade-to-TokenService" style="stroke:#181818;stroke-width:1;"/><polygon fill="#181818" points="692.86,424.2169,696.86,415.2169,692.86,419.2169,688.86,415.2169,692.86,424.2169" style="stroke:#181818;stroke-width:1;"/><text fill="#000000" font-family="sans-serif" font-size="13" lengthAdjust="spacing" textLength="130.019" x="693.86" y="390.7438">maakt instantie van</text></g><!--link AuthFacade to LoggerService--><g class="link" data-entity-1="AuthFacade" data-entity-2="LoggerService" data-source-line="41" data-uid="lnk10" id="link_AuthFacade_LoggerService"><path codeLine="41" d="M830.08,348.1669 C896.61,379.3169 968.1061,412.7828 1021.8461,437.9428" fill="none" id="AuthFacade-to-LoggerService" style="stroke:#181818;stroke-width:1;"/><polygon fill="#181818" points="1027.28,440.4869,1020.8251,433.0482,1022.7517,438.3668,1017.433,440.2934,1027.28,440.4869" style="stroke:#181818;stroke-width:1;"/><text fill="#000000" font-family="sans-serif" font-size="13" lengthAdjust="spacing" textLength="130.019" x="919.86" y="390.7438">maakt instantie van</text></g><!--link AuthController to AuthFacade--><g class="link" data-entity-1="AuthController" data-entity-2="AuthFacade" data-source-line="42" data-uid="lnk11" id="link_AuthController_AuthFacade"><path codeLine="42" d="M692.86,141.2369 C692.86,164.4269 692.86,186.6769 692.86,211.7569" fill="none" id="AuthController-to-AuthFacade" style="stroke:#181818;stroke-width:1;"/><polygon fill="#181818" points="692.86,217.7569,696.86,208.7569,692.86,212.7569,688.86,208.7569,692.86,217.7569" style="stroke:#181818;stroke-width:1;"/><text fill="#000000" font-family="sans-serif" font-size="13" lengthAdjust="spacing" textLength="130.019" x="693.86" y="184.2538">maakt instantie van</text></g><!--link UserService to AuthRequest--><g class="link" data-entity-1="UserService" data-entity-2="AuthRequest" data-source-line="43" data-uid="lnk12" id="link_UserService_AuthRequest"><path codeLine="43" d="M191.86,522.0069 C191.86,545.7469 191.86,568.3469 191.86,592.0869" fill="none" id="UserService-to-AuthRequest" style="stroke:#181818;stroke-width:1;"/><polygon fill="#181818" points="191.86,598.0869,195.86,589.0869,191.86,593.0869,187.86,589.0869,191.86,598.0869" style="stroke:#181818;stroke-width:1;"/><text fill="#000000" font-family="sans-serif" font-size="13" lengthAdjust="spacing" textLength="54.3232" x="192.86" y="564.6338">gebruikt</text></g><!--SRC=[pLFBJiCm4BptA_QO2le3EI25g51e1QYXPsIS9RNYsC7U52J4l-CqBwS52O6GyCdhtHdFlaYGH3XdF4ULGYeG2YJ0LqAZ42oQdU08N1T5fTmD3Uq3BXXdAS8TepeGWgLarZe6mJB3Ykbamki7Y2hQjg5l4t1dLZdAf64DOJCOZPUqaz6xxpshyKkTPHv-vPlxY1CN8LHG_w9OuK8ICa9bfr0wEI_QfDtBjBiqCBv5daTb6N6ErWPx7GFuc8wLfHISaT3gcF6zIz_BhyiVjaHbB0Kg2c7Htrkd9KV9uKae9bisb-NjvTNDmsQz-cc6lHw_eByG52_cyV8XYkDvaWow_gQ4enQtckiI18NxX6KzttI0r4CNQqL6IuccovFrenXwO_aFXwOMjyRd2YtvI-DJDQ-7wXfHfA-jLi68s5l3sUniD9OX58pb14AvLYjo-xzZwX0mcfjl8SPj-nhYzQc6UIoVOtpf7Q0hLWWPFffAvFG1]--></g></svg>